<svg width="457" height="145" viewBox="0 0 457 145" fill="none" xmlns="http://www.w3.org/2000/svg">
<path d="M3.85938 4.46094L7.09962 12.4221C16.5188 35.5647 40.1351 49.6623 64.9757 46.9709V46.9709C91.2039 44.1291 115.856 59.9864 124.146 85.0318L127.506 95.1837C136.337 121.861 160.42 140.551 188.454 142.483L195.62 142.977C216.282 144.401 236.689 137.749 252.541 124.421L271.85 108.188C325.284 63.2635 404.628 68.4193 451.799 119.881V119.881" stroke="#14A38B" stroke-width="2"/>
<path fill-rule="evenodd" clip-rule="evenodd" d="M4 8C6.20914 8 8 6.20914 8 4C8 1.79086 6.20914 0 4 0C1.79086 0 0 1.79086 0 4C0 6.20914 1.79086 8 4 8Z" fill="#14A38B"/>
<path fill-rule="evenodd" clip-rule="evenodd" d="M79 51C81.2091 51 83 49.2091 83 47C83 44.7909 81.2091 43 79 43C76.7909 43 75 44.7909 75 47C75 49.2091 76.7909 51 79 51Z" fill="#14A38B"/>
<path fill-rule="evenodd" clip-rule="evenodd" d="M303 92C305.209 92 307 90.2091 307 88C307 85.7909 305.209 84 303 84C300.791 84 299 85.7909 299 88C299 90.2091 300.791 92 303 92Z" fill="#14A38B"/>
<path fill-rule="evenodd" clip-rule="evenodd" d="M378 83C380.209 83 382 81.2091 382 79C382 76.7909 380.209 75 378 75C375.791 75 374 76.7909 374 79C374 81.2091 375.791 83 378 83Z" fill="#14A38B"/>
<path fill-rule="evenodd" clip-rule="evenodd" d="M453 125C455.209 125 457 123.209 457 121C457 118.791 455.209 117 453 117C450.791 117 449 118.791 449 121C449 123.209 450.791 125 453 125Z" fill="#14A38B"/>
<path fill-rule="evenodd" clip-rule="evenodd" d="M229 142C231.209 142 233 140.209 233 138C233 135.791 231.209 134 229 134C226.791 134 225 135.791 225 138C225 140.209 226.791 142 229 142Z" fill="#14A38B"/>
<path fill-rule="evenodd" clip-rule="evenodd" d="M154 135C156.209 135 158 133.209 158 131C158 128.791 156.209 127 154 127C151.791 127 150 128.791 150 131C150 133.209 151.791 135 154 135Z" fill="#14A38B"/>
</svg>
