<svg width="746" height="145" viewBox="0 0 746 145" fill="none" xmlns="http://www.w3.org/2000/svg">
<path d="M3.85938 4.46094V4.46094C23.3592 33.5827 56.9059 50.0992 91.8776 47.796L119.8 45.9571C155.51 43.6053 189.331 62.2221 206.446 93.6516V93.6516C221.865 121.965 251.007 140.115 283.218 141.464L327.597 143.323C356.92 144.552 386.062 138.179 412.196 124.824L453.679 103.625C545.301 56.804 655.048 63.0176 740.799 119.881V119.881" stroke="#70B77E" stroke-width="2"/>
<path fill-rule="evenodd" clip-rule="evenodd" d="M6.52954 8C10.1357 8 13.0591 6.20914 13.0591 4C13.0591 1.79086 10.1357 0 6.52954 0C2.92337 0 0 1.79086 0 4C0 6.20914 2.92337 8 6.52954 8Z" fill="#70B77E"/>
<path fill-rule="evenodd" clip-rule="evenodd" d="M128.958 51C132.565 51 135.488 49.2091 135.488 47C135.488 44.7909 132.565 43 128.958 43C125.352 43 122.429 44.7909 122.429 47C122.429 49.2091 125.352 51 128.958 51Z" fill="#70B77E"/>
<path fill-rule="evenodd" clip-rule="evenodd" d="M494.613 92C498.219 92 501.142 90.2091 501.142 88C501.142 85.7909 498.219 84 494.613 84C491.007 84 488.083 85.7909 488.083 88C488.083 90.2091 491.007 92 494.613 92Z" fill="#70B77E"/>
<path fill-rule="evenodd" clip-rule="evenodd" d="M617.042 83C620.648 83 623.571 81.2091 623.571 79C623.571 76.7909 620.648 75 617.042 75C613.435 75 610.512 76.7909 610.512 79C610.512 81.2091 613.435 83 617.042 83Z" fill="#70B77E"/>
<path fill-rule="evenodd" clip-rule="evenodd" d="M739.47 125C743.077 125 746 123.209 746 121C746 118.791 743.077 117 739.47 117C735.864 117 732.941 118.791 732.941 121C732.941 123.209 735.864 125 739.47 125Z" fill="#70B77E"/>
<path fill-rule="evenodd" clip-rule="evenodd" d="M373.816 142C377.422 142 380.346 140.209 380.346 138C380.346 135.791 377.422 134 373.816 134C370.21 134 367.287 135.791 367.287 138C367.287 140.209 370.21 142 373.816 142Z" fill="#70B77E"/>
<path fill-rule="evenodd" clip-rule="evenodd" d="M251.387 135C254.993 135 257.917 133.209 257.917 131C257.917 128.791 254.993 127 251.387 127C247.781 127 244.858 128.791 244.858 131C244.858 133.209 247.781 135 251.387 135Z" fill="#70B77E"/>
</svg>
