<svg width="15" height="16" viewBox="0 0 15 16" fill="none" xmlns="http://www.w3.org/2000/svg">
<g clip-path="url(#clip0_184_1545)">
<path fill-rule="evenodd" clip-rule="evenodd" d="M8.1625 10.5375C7.98672 10.7131 7.74844 10.8117 7.5 10.8117C7.25156 10.8117 7.01328 10.7131 6.8375 10.5375L3.30125 7.00249C3.12546 6.82662 3.02674 6.58812 3.02679 6.33946C3.02685 6.0908 3.12569 5.85234 3.30156 5.67655C3.47743 5.50077 3.71593 5.40204 3.96459 5.4021C4.21326 5.40216 4.45171 5.50099 4.6275 5.67687L7.5 8.54937L10.3725 5.67687C10.5492 5.50601 10.786 5.4114 11.0318 5.41342C11.2776 5.41544 11.5128 5.51392 11.6867 5.68766C11.8606 5.8614 11.9593 6.09649 11.9616 6.3423C11.9638 6.58811 11.8694 6.82497 11.6987 7.00187L8.16312 10.5381L8.1625 10.5375Z" fill="#FDFFFC"/>
</g>
<defs>
<clipPath id="clip0_184_1545">
<rect width="15" height="15" fill="white" transform="translate(0 0.5)"/>
</clipPath>
</defs>
</svg>
