<svg width="457" height="175" viewBox="0 0 457 175" fill="none" xmlns="http://www.w3.org/2000/svg">
<path d="M3.85938 171.32L18.3922 133.199C29.3074 104.567 53.0382 82.7246 82.4753 74.2158V74.2158C121.859 62.832 164.158 77.2785 188.351 110.375L200.275 126.689C213.448 144.71 234.43 155.363 256.752 155.363V155.363C283.601 155.363 308.081 139.997 319.753 115.818L337.125 79.8289C357.528 37.5612 398.611 9.09709 445.352 4.84428L453.129 4.13672" stroke="#D6CF6E" stroke-width="2"/>
<path fill-rule="evenodd" clip-rule="evenodd" d="M4 175C6.20914 175 8 173.209 8 171C8 168.791 6.20914 167 4 167C1.79086 167 0 168.791 0 171C0 173.209 1.79086 175 4 175Z" fill="#D6CF6E"/>
<path fill-rule="evenodd" clip-rule="evenodd" d="M79 80C81.2091 80 83 78.2091 83 76C83 73.7909 81.2091 72 79 72C76.7909 72 75 73.7909 75 76C75 78.2091 76.7909 80 79 80Z" fill="#D6CF6E"/>
<path fill-rule="evenodd" clip-rule="evenodd" d="M303 143C305.209 143 307 141.209 307 139C307 136.791 305.209 135 303 135C300.791 135 299 136.791 299 139C299 141.209 300.791 143 303 143Z" fill="#D6CF6E"/>
<path fill-rule="evenodd" clip-rule="evenodd" d="M378 35C380.209 35 382 33.2091 382 31C382 28.7909 380.209 27 378 27C375.791 27 374 28.7909 374 31C374 33.2091 375.791 35 378 35Z" fill="#D6CF6E"/>
<path fill-rule="evenodd" clip-rule="evenodd" d="M453 8C455.209 8 457 6.20914 457 4C457 1.79086 455.209 0 453 0C450.791 0 449 1.79086 449 4C449 6.20914 450.791 8 453 8Z" fill="#D6CF6E"/>
<path fill-rule="evenodd" clip-rule="evenodd" d="M229 153C231.209 153 233 151.209 233 149C233 146.791 231.209 145 229 145C226.791 145 225 146.791 225 149C225 151.209 226.791 153 229 153Z" fill="#D6CF6E"/>
<path fill-rule="evenodd" clip-rule="evenodd" d="M154 85C156.209 85 158 83.2091 158 81C158 78.7909 156.209 77 154 77C151.791 77 150 78.7909 150 81C150 83.2091 151.791 85 154 85Z" fill="#D6CF6E"/>
</svg>
