<svg width="613" height="196" viewBox="0 0 613 196" fill="none" xmlns="http://www.w3.org/2000/svg">
<path d="M3.85938 4.46094L8.50001 16.0422C21.0198 47.2869 52.8298 66.3563 86.2874 62.6742V62.6742C121.583 58.7898 154.762 80.2012 165.764 113.963L170.596 128.79C182.477 165.247 215.282 190.857 253.533 193.535L262.166 194.139C290.149 196.098 317.782 186.988 339.114 168.772L364.92 146.734C436.797 85.3547 544.475 92.3557 607.799 162.526V162.526" stroke="#70B77E" stroke-width="2"/>
<path fill-rule="evenodd" clip-rule="evenodd" d="M5.36543 10.8531C8.32867 10.8531 10.7309 8.42359 10.7309 5.42657C10.7309 2.42956 8.32867 0 5.36543 0C2.40218 0 0 2.42956 0 5.42657C0 8.42359 2.40218 10.8531 5.36543 10.8531Z" fill="#70B77E"/>
<path fill-rule="evenodd" clip-rule="evenodd" d="M105.967 69.1888C108.93 69.1888 111.333 66.7593 111.333 63.7622C111.333 60.7652 108.93 58.3357 105.967 58.3357C103.004 58.3357 100.602 60.7652 100.602 63.7622C100.602 66.7593 103.004 69.1888 105.967 69.1888Z" fill="#70B77E"/>
<path fill-rule="evenodd" clip-rule="evenodd" d="M406.431 124.811C409.394 124.811 411.797 122.382 411.797 119.385C411.797 116.388 409.394 113.958 406.431 113.958C403.468 113.958 401.066 116.388 401.066 119.385C401.066 122.382 403.468 124.811 406.431 124.811Z" fill="#70B77E"/>
<path fill-rule="evenodd" clip-rule="evenodd" d="M507.033 112.601C509.996 112.601 512.398 110.172 512.398 107.175C512.398 104.178 509.996 101.748 507.033 101.748C504.07 101.748 501.667 104.178 501.667 107.175C501.667 110.172 504.07 112.601 507.033 112.601Z" fill="#70B77E"/>
<path fill-rule="evenodd" clip-rule="evenodd" d="M607.634 169.58C610.598 169.58 613 167.151 613 164.154C613 161.157 610.598 158.727 607.634 158.727C604.671 158.727 602.269 161.157 602.269 164.154C602.269 167.151 604.671 169.58 607.634 169.58Z" fill="#70B77E"/>
<path fill-rule="evenodd" clip-rule="evenodd" d="M307.171 192.643C310.134 192.643 312.536 190.214 312.536 187.217C312.536 184.22 310.134 181.79 307.171 181.79C304.207 181.79 301.805 184.22 301.805 187.217C301.805 190.214 304.207 192.643 307.171 192.643Z" fill="#70B77E"/>
<path fill-rule="evenodd" clip-rule="evenodd" d="M206.569 183.147C209.532 183.147 211.934 180.717 211.934 177.72C211.934 174.723 209.532 172.294 206.569 172.294C203.606 172.294 201.204 174.723 201.204 177.72C201.204 180.717 203.606 183.147 206.569 183.147Z" fill="#70B77E"/>
</svg>
