<svg width="613" height="237" viewBox="0 0 613 237" fill="none" xmlns="http://www.w3.org/2000/svg">
<path d="M3.85938 233.32L23.9258 179.761C38.3222 141.335 69.9517 111.917 109.318 100.338V100.338C162.517 84.6918 219.794 104.369 252.146 149.405L268.755 172.525C286.307 196.959 314.551 211.446 344.636 211.446V211.446C380.722 211.446 413.582 190.664 429.049 158.06L452.879 107.827C480.324 49.9749 536.244 10.8845 600.003 4.98156L609.129 4.13672" stroke="#0E518E" stroke-width="2"/>
<path fill-rule="evenodd" clip-rule="evenodd" d="M5.36543 237C8.32867 237 10.7309 234.575 10.7309 231.583C10.7309 228.591 8.32867 226.166 5.36543 226.166C2.40218 226.166 0 228.591 0 231.583C0 234.575 2.40218 237 5.36543 237Z" fill="#0E518E"/>
<path fill-rule="evenodd" clip-rule="evenodd" d="M105.967 108.343C108.93 108.343 111.333 105.917 111.333 102.926C111.333 99.9339 108.93 97.5085 105.967 97.5085C103.004 97.5085 100.602 99.9339 100.602 102.926C100.602 105.917 103.004 108.343 105.967 108.343Z" fill="#0E518E"/>
<path fill-rule="evenodd" clip-rule="evenodd" d="M406.431 193.663C409.394 193.663 411.797 191.238 411.797 188.246C411.797 185.254 409.394 182.829 406.431 182.829C403.468 182.829 401.066 185.254 401.066 188.246C401.066 191.238 403.468 193.663 406.431 193.663Z" fill="#0E518E"/>
<path fill-rule="evenodd" clip-rule="evenodd" d="M507.033 47.4C509.996 47.4 512.398 44.9746 512.398 41.9828C512.398 38.991 509.996 36.5657 507.033 36.5657C504.07 36.5657 501.667 38.991 501.667 41.9828C501.667 44.9746 504.07 47.4 507.033 47.4Z" fill="#0E518E"/>
<path fill-rule="evenodd" clip-rule="evenodd" d="M607.635 10.8343C610.598 10.8343 613 8.40895 613 5.41714C613 2.42534 610.598 0 607.635 0C604.671 0 602.269 2.42534 602.269 5.41714C602.269 8.40895 604.671 10.8343 607.635 10.8343Z" fill="#0E518E"/>
<path fill-rule="evenodd" clip-rule="evenodd" d="M307.171 207.206C310.134 207.206 312.536 204.78 312.536 201.789C312.536 198.797 310.134 196.371 307.171 196.371C304.207 196.371 301.805 198.797 301.805 201.789C301.805 204.78 304.207 207.206 307.171 207.206Z" fill="#0E518E"/>
<path fill-rule="evenodd" clip-rule="evenodd" d="M206.569 115.114C209.532 115.114 211.934 112.689 211.934 109.697C211.934 106.705 209.532 104.28 206.569 104.28C203.606 104.28 201.203 106.705 201.203 109.697C201.203 112.689 203.606 115.114 206.569 115.114Z" fill="#0E518E"/>
</svg>
