<svg width="15" height="15" viewBox="0 0 15 15" fill="none" xmlns="http://www.w3.org/2000/svg">
<g clip-path="url(#clip0_182_418)">
<path fill-rule="evenodd" clip-rule="evenodd" d="M10.0375 6.8375C10.2131 7.01328 10.3117 7.25156 10.3117 7.5C10.3117 7.74844 10.2131 7.98672 10.0375 8.1625L6.50249 11.6988C6.32662 11.8745 6.08812 11.9733 5.83946 11.9732C5.5908 11.9731 5.35234 11.8743 5.17655 11.6984C5.00077 11.5226 4.90204 11.2841 4.9021 11.0354C4.90216 10.7867 5.00099 10.5483 5.17687 10.3725L8.04937 7.5L5.17687 4.6275C5.00601 4.45077 4.9114 4.214 4.91342 3.96819C4.91544 3.72237 5.01392 3.48719 5.18766 3.31329C5.3614 3.13938 5.59649 3.04068 5.8423 3.03843C6.08811 3.03617 6.32497 3.13056 6.50187 3.30125L10.0381 6.83688L10.0375 6.8375Z" fill="#7C9CBF"/>
</g>
<defs>
<clipPath id="clip0_182_418">
<rect width="15" height="15" fill="white" transform="matrix(0 -1 1 0 0 15)"/>
</clipPath>
</defs>
</svg>
