<svg width="15" height="16" viewBox="0 0 15 16" fill="none" xmlns="http://www.w3.org/2000/svg">
<g clip-path="url(#clip0_182_950)">
<path fill-rule="evenodd" clip-rule="evenodd" d="M8.16256 10.5375C7.98678 10.7131 7.7485 10.8117 7.50006 10.8117C7.25162 10.8117 7.01334 10.7131 6.83756 10.5375L3.30131 7.00249C3.12552 6.82662 3.0268 6.58812 3.02686 6.33946C3.02691 6.0908 3.12575 5.85234 3.30162 5.67655C3.47749 5.50077 3.71599 5.40204 3.96466 5.4021C4.21332 5.40216 4.45177 5.50099 4.62756 5.67687L7.50006 8.54937L10.3726 5.67687C10.5493 5.50601 10.7861 5.4114 11.0319 5.41342C11.2777 5.41544 11.5129 5.51392 11.6868 5.68766C11.8607 5.8614 11.9594 6.09649 11.9616 6.3423C11.9639 6.58811 11.8695 6.82497 11.6988 7.00187L8.16318 10.5381L8.16256 10.5375Z" fill="#7C9CBF"/>
</g>
<defs>
<clipPath id="clip0_182_950">
<rect width="15" height="15" fill="white" transform="translate(0 0.5)"/>
</clipPath>
</defs>
</svg>
