<svg width="15" height="15" viewBox="0 0 15 15" fill="none" xmlns="http://www.w3.org/2000/svg">
<g clip-path="url(#clip0_165_1066)">
<path fill-rule="evenodd" clip-rule="evenodd" d="M10.0377 6.83744C10.2133 7.01322 10.3119 7.2515 10.3119 7.49994C10.3119 7.74838 10.2133 7.98666 10.0377 8.16244L6.50274 11.6987C6.32686 11.8745 6.08836 11.9732 5.8397 11.9731C5.59104 11.9731 5.35259 11.8742 5.1768 11.6984C5.00101 11.5225 4.90229 11.284 4.90234 11.0353C4.9024 10.7867 5.00124 10.5482 5.17711 10.3724L8.04961 7.49994L5.17711 4.62744C5.00625 4.45071 4.91164 4.21394 4.91366 3.96812C4.91568 3.72231 5.01417 3.48713 5.18791 3.31323C5.36165 3.13932 5.59674 3.04062 5.84255 3.03837C6.08836 3.03611 6.32522 3.1305 6.50211 3.30119L10.0384 6.83682L10.0377 6.83744Z" fill="#7C9CBF"/>
</g>
<defs>
<clipPath id="clip0_165_1066">
<rect width="15" height="15" fill="white" transform="matrix(0 -1 1 0 0 15)"/>
</clipPath>
</defs>
</svg>
